<svg width="17" height="20" viewBox="0 0 17 20" fill="none" xmlns="http://www.w3.org/2000/svg">
<path d="M16.4665 2.57582L14.4978 0.54918C14.1562 0.197548 13.6929 2.6003e-06 13.2098 0L6.67857 0C5.67261 0 4.85714 0.839453 4.85714 1.875V3.75H1.82143C0.815469 3.75 0 4.58945 0 5.625V18.125C0 19.1605 0.815469 20 1.82143 20H10.3214C11.3274 20 12.1429 19.1605 12.1429 18.125V16.25H15.1786C16.1845 16.25 17 15.4105 17 14.375V3.90164C17 3.40436 16.8081 2.92745 16.4665 2.57582ZM10.0938 18.125H2.04911C1.98872 18.125 1.93081 18.1003 1.88811 18.0564C1.84542 18.0124 1.82143 17.9528 1.82143 17.8906V5.85938C1.82143 5.79721 1.84542 5.7376 1.88811 5.69365C1.93081 5.64969 1.98872 5.625 2.04911 5.625H4.85714V14.375C4.85714 15.4105 5.67261 16.25 6.67857 16.25H10.3214V17.8906C10.3214 17.9528 10.2974 18.0124 10.2547 18.0564C10.212 18.1003 10.1541 18.125 10.0938 18.125ZM14.9509 14.375H6.90625C6.84587 14.375 6.78795 14.3503 6.74526 14.3064C6.70256 14.2624 6.67857 14.2028 6.67857 14.1406V2.10938C6.67857 2.04721 6.70256 1.9876 6.74526 1.94365C6.78795 1.89969 6.84587 1.875 6.90625 1.875H10.9286V5.3125C10.9286 5.83027 11.3363 6.25 11.8393 6.25H15.1786V14.1406C15.1786 14.2028 15.1546 14.2624 15.1119 14.3064C15.0692 14.3503 15.0113 14.375 14.9509 14.375ZM15.1786 4.375H12.75V1.875H13.1155C13.1759 1.875 13.2338 1.89969 13.2765 1.94363L15.1119 3.83301C15.133 3.85477 15.1498 3.88061 15.1613 3.90905C15.1727 3.93749 15.1786 3.96797 15.1786 3.99875V4.375Z" fill="white"/>
</svg>
