<svg width="146" height="30" viewBox="0 0 146 30" fill="none" xmlns="http://www.w3.org/2000/svg">
<path d="M16.2355 23.7377C14.9151 23.7377 13.7028 23.4426 12.5988 22.8525C11.5164 22.2623 10.6505 21.4426 10.0011 20.3934C9.37332 19.3443 9.05943 18.0984 9.05943 16.6557V6.65574C9.05943 6.13115 8.87543 5.68306 8.50743 5.31147C8.13942 4.93989 7.69565 4.7541 7.17611 4.7541C6.65657 4.7541 6.2128 4.93989 5.8448 5.31147C5.49844 5.68306 5.32526 6.13115 5.32526 6.65574V23.3443H0V7.04918C0 5.69399 0.303064 4.48087 0.909191 3.40983C1.53697 2.3388 2.39204 1.5082 3.47441 0.918033C4.57842 0.306011 5.81233 0 7.17611 0C8.5399 0 9.76297 0.306011 10.8453 0.918033C11.9277 1.5082 12.7828 2.3388 13.4106 3.40983C14.06 4.48087 14.3847 5.69399 14.3847 7.04918V17.0492C14.3847 17.5956 14.5579 18.0546 14.9042 18.4262C15.2722 18.776 15.7052 18.9508 16.2031 18.9508C16.7226 18.9508 17.1664 18.776 17.5344 18.4262C17.924 18.0546 18.1189 17.5956 18.1189 17.0492V7.04918C18.1189 5.69399 18.4328 4.48087 19.0605 3.40983C19.6883 2.3388 20.5434 1.5082 21.6258 0.918033C22.7081 0.306011 23.9312 0 25.295 0C26.6588 0 27.8818 0.306011 28.9642 0.918033C30.0466 1.5082 30.9017 2.3388 31.5294 3.40983C32.1572 4.48087 32.4711 5.69399 32.4711 7.04918V23.3443H27.1458V6.62295C27.1458 6.12022 26.9618 5.68306 26.5938 5.31147C26.2475 4.93989 25.8145 4.7541 25.295 4.7541C24.7971 4.7541 24.3533 4.93989 23.9637 5.31147C23.5957 5.68306 23.4117 6.12022 23.4117 6.62295V16.6557C23.4117 18.0984 23.087 19.3443 22.4375 20.3934C21.7881 21.4426 20.9222 22.2623 19.8398 22.8525C18.7575 23.4426 17.556 23.7377 16.2355 23.7377Z" fill="white"/>
<path d="M41.9006 30V23.4426C40.0606 23.0055 38.6319 22.1202 37.6145 20.7869C36.6187 19.4535 36.1208 17.9235 36.1208 16.1967V6.52459H41.1538V16.0328C41.1538 16.929 41.4569 17.7049 42.063 18.3607C42.6908 18.9945 43.4593 19.3115 44.3685 19.3115C45.2993 19.3115 46.0678 18.9945 46.6739 18.3607C47.3017 17.7049 47.6156 16.929 47.6156 16.0328V6.52459H52.6486V16.1967C52.6486 17.9235 52.1507 19.4535 51.1549 20.7869C50.1591 22.0984 48.752 22.9727 46.9337 23.4098V30H41.9006Z" fill="white"/>
<path d="M72.5209 23.7377C71.1355 23.7377 69.9016 23.4426 68.8192 22.8525C67.7585 22.2404 66.9142 21.4098 66.2864 20.3607C65.6587 19.2896 65.3448 18.0656 65.3448 16.6885V6.65574C65.3448 6.13115 65.1608 5.68306 64.7928 5.31147C64.4248 4.93989 63.981 4.7541 63.4615 4.7541C62.9419 4.7541 62.4981 4.93989 62.1301 5.31147C61.7838 5.68306 61.6106 6.13115 61.6106 6.65574V23.3443H56.2853V7.04918C56.2853 5.69399 56.5884 4.48087 57.1945 3.40983C57.8223 2.3388 58.6774 1.5082 59.7597 0.918033C60.8638 0.306011 62.0977 0 63.4615 0C64.8252 0 66.0483 0.306011 67.1307 0.918033C68.2131 1.5082 69.0681 2.3388 69.6959 3.40983C70.3453 4.48087 70.67 5.69399 70.67 7.04918V17.082C70.67 17.6284 70.8432 18.0874 71.1896 18.459C71.5576 18.8087 71.9905 18.9836 72.4884 18.9836C73.008 18.9836 73.4517 18.8087 73.8197 18.459C74.2094 18.0874 74.4042 17.6284 74.4042 17.082V0.393441H79.697V16.6885C79.697 18.0656 79.3831 19.2896 78.7553 20.3607C78.1276 21.4098 77.2725 22.2404 76.1901 22.8525C75.1078 23.4426 73.8847 23.7377 72.5209 23.7377Z" fill="white"/>
<path d="M83.1739 23.3443V7.18033C83.1739 5.91257 83.477 4.76503 84.0831 3.7377C84.7109 2.71038 85.5443 1.90164 86.5834 1.31147C87.6441 0.699452 88.8239 0.393441 90.1228 0.393441H98.5977V4.98361H90.8047C90.1985 4.98361 89.679 5.20219 89.246 5.63934C88.8347 6.0765 88.6291 6.61202 88.6291 7.2459V10.5574H97.4937V15.1148H88.6291V23.3443H83.1739Z" fill="white"/>
<path d="M113.231 23.3443C111.845 23.3443 110.622 23.0383 109.561 22.4262C108.522 21.7923 107.7 20.9508 107.093 19.9016C106.509 18.8525 106.217 17.6831 106.217 16.3934V4.98361H100.047V0.393441H117.809V4.98361H111.672V16.8852C111.672 17.388 111.845 17.8251 112.191 18.1967C112.538 18.5683 112.971 18.7541 113.49 18.7541H115.276V23.3443H113.231Z" fill="white"/>
<path d="M120.76 23.5666C120.271 23.5666 119.849 23.3937 119.494 23.0478C119.151 22.6895 118.98 22.2694 118.98 21.7876C118.98 21.2934 119.151 20.8734 119.494 20.5274C119.849 20.1692 120.271 19.99 120.76 19.99C121.237 19.99 121.647 20.1692 121.99 20.5274C122.345 20.8734 122.522 21.2934 122.522 21.7876C122.522 22.2694 122.345 22.6895 121.99 23.0478C121.647 23.3937 121.237 23.5666 120.76 23.5666Z" fill="white"/>
<path d="M124.974 23.3443V16.191H123.396V13.8375H124.974V12.5959C124.974 11.7311 125.213 11.0516 125.69 10.5574C126.179 10.0632 126.858 9.81611 127.727 9.81611H130.59V12.1696H128.351C128.192 12.1696 128.064 12.2252 127.966 12.3364C127.868 12.4353 127.819 12.5588 127.819 12.7071V13.8375H130.186V16.191H127.819V23.3443H124.974Z" fill="white"/>
<path d="M134.694 27.1062V23.3999C133.654 23.1528 132.847 22.6524 132.272 21.8988C131.709 21.1452 131.428 20.2803 131.428 19.3043V13.8375H134.272V19.2117C134.272 19.7182 134.444 20.1568 134.786 20.5274C135.141 20.8857 135.575 21.0649 136.089 21.0649C136.615 21.0649 137.05 20.8857 137.392 20.5274C137.747 20.1568 137.925 19.7182 137.925 19.2117V13.8375H140.769V19.3043C140.769 20.2803 140.488 21.1452 139.925 21.8988C139.362 22.6401 138.567 23.1342 137.539 23.3813V27.1062H134.694Z" fill="white"/>
<path d="M142.898 23.3443V13.8375H145.761V23.3443H142.898ZM144.33 12.7627C143.877 12.7627 143.486 12.5959 143.155 12.2623C142.825 11.9287 142.66 11.5334 142.66 11.0763C142.66 10.6068 142.825 10.2053 143.155 9.8717C143.486 9.53813 143.877 9.37135 144.33 9.37135C144.795 9.37135 145.186 9.53813 145.504 9.8717C145.835 10.2053 146 10.6068 146 11.0763C146 11.5334 145.835 11.9287 145.504 12.2623C145.186 12.5959 144.795 12.7627 144.33 12.7627Z" fill="white"/>
</svg>
