<svg width="20" height="20" viewBox="0 0 20 20" fill="none" xmlns="http://www.w3.org/2000/svg">
<path fill-rule="evenodd" clip-rule="evenodd" d="M9.99998 0.833008C4.93748 0.833008 0.833313 4.93717 0.833313 9.99967C0.833313 15.0622 4.93748 19.1663 9.99998 19.1663C15.0625 19.1663 19.1666 15.0622 19.1666 9.99967C19.1666 4.93717 15.0625 0.833008 9.99998 0.833008ZM13.9733 8.44967C14.0465 8.36604 14.1022 8.26862 14.1371 8.16315C14.1721 8.05767 14.1856 7.94627 14.1769 7.83549C14.1681 7.72472 14.1373 7.61681 14.0863 7.51811C14.0352 7.41942 13.965 7.33193 13.8796 7.26079C13.7942 7.18966 13.6955 7.13631 13.5892 7.10389C13.4829 7.07148 13.3712 7.06064 13.2607 7.07203C13.1502 7.08342 13.043 7.1168 12.9456 7.1702C12.8482 7.22361 12.7624 7.29596 12.6933 7.38301L9.10998 11.6822L7.25581 9.82717C7.09864 9.67537 6.88814 9.59138 6.66964 9.59328C6.45115 9.59518 6.24214 9.68282 6.08763 9.83733C5.93312 9.99183 5.84548 10.2008 5.84358 10.4193C5.84169 10.6378 5.92568 10.8483 6.07748 11.0055L8.57748 13.5055C8.65936 13.5873 8.75739 13.6512 8.86532 13.6931C8.97326 13.7349 9.08873 13.7538 9.20437 13.7485C9.32001 13.7433 9.43329 13.714 9.53699 13.6625C9.64068 13.6111 9.73252 13.5386 9.80665 13.4497L13.9733 8.44967Z" fill="#05C200"/>
</svg>
