<svg width="24" height="21" viewBox="0 0 24 21" fill="none" xmlns="http://www.w3.org/2000/svg">
<g filter="url(#filter0_d)">
<path d="M8.46478 17.5345C7.47594 17.5345 6.50931 17.2413 5.68711 16.6919C4.86491 16.1426 4.22405 15.3618 3.84558 14.4482C3.46711 13.5347 3.36801 12.5295 3.56081 11.5596C3.75362 10.5897 4.22967 9.69883 4.92878 8.99951L7.04978 6.87751L8.46378 8.29151L6.34278 10.4125C5.78012 10.9752 5.46402 11.7383 5.46402 12.534C5.46402 13.3297 5.78012 14.0929 6.34278 14.6555C6.90544 15.2182 7.66856 15.5343 8.46428 15.5343C9.26 15.5343 10.0231 15.2182 10.5858 14.6555L12.7058 12.5345L14.1208 13.9495L11.9998 16.0705C11.5364 16.5362 10.9853 16.9053 10.3784 17.1566C9.77143 17.4079 9.12068 17.5363 8.46378 17.5345H8.46478ZM9.17178 13.2415L7.75778 11.8275L14.8278 4.75651L16.2428 6.17051L9.17278 13.2405L9.17178 13.2415ZM16.9508 11.1205L15.5358 9.70651L17.6558 7.58551C17.9424 7.30884 18.171 6.97786 18.3283 6.61188C18.4856 6.24591 18.5685 5.85227 18.572 5.45393C18.5756 5.0556 18.4998 4.66054 18.349 4.29182C18.1983 3.92309 17.9756 3.58808 17.694 3.30634C17.4124 3.02459 17.0775 2.80176 16.7088 2.65083C16.3401 2.4999 15.9451 2.4239 15.5468 2.42727C15.1485 2.43063 14.7548 2.5133 14.3887 2.67044C14.0227 2.82758 13.6916 3.05605 13.4148 3.34251L11.2928 5.46351L9.87878 4.04951L11.9998 1.92751C12.9415 1.00952 14.2069 0.499489 15.522 0.507915C16.8371 0.516341 18.0959 1.04254 19.0258 1.97253C19.9556 2.90252 20.4816 4.1614 20.4899 5.47648C20.4981 6.79157 19.9879 8.05695 19.0698 8.99851L16.9498 11.1195V11.1205H16.9508Z" fill="white"/>
</g>
<defs>
<filter id="filter0_d" x="-0.535156" y="0.507812" width="25.0251" height="25.0267" filterUnits="userSpaceOnUse" color-interpolation-filters="sRGB">
<feFlood flood-opacity="0" result="BackgroundImageFix"/>
<feColorMatrix in="SourceAlpha" type="matrix" values="0 0 0 0 0 0 0 0 0 0 0 0 0 0 0 0 0 0 127 0" result="hardAlpha"/>
<feOffset dy="4"/>
<feGaussianBlur stdDeviation="2"/>
<feComposite in2="hardAlpha" operator="out"/>
<feColorMatrix type="matrix" values="0 0 0 0 0 0 0 0 0 0 0 0 0 0 0 0 0 0 0.25 0"/>
<feBlend mode="normal" in2="BackgroundImageFix" result="effect1_dropShadow"/>
<feBlend mode="normal" in="SourceGraphic" in2="effect1_dropShadow" result="shape"/>
</filter>
</defs>
</svg>
