<svg width="46" height="46" viewBox="0 0 46 46" fill="none" xmlns="http://www.w3.org/2000/svg">
<circle cx="22.5159" cy="23.4847" r="13.5579" fill="white"/>
<path fill-rule="evenodd" clip-rule="evenodd" d="M5.1796 27.6H4.6C3.38 27.6 2.20998 27.1154 1.34731 26.2527C0.484641 25.39 0 24.22 0 23C0 21.78 0.484641 20.61 1.34731 19.7473C2.20998 18.8846 3.38 18.4 4.6 18.4H5.1796C5.6143 16.7118 6.2836 15.1179 7.1484 13.6528L6.7344 13.2411C5.87186 12.378 5.38754 11.2075 5.38797 9.98727C5.3884 8.76703 5.87355 7.59694 6.7367 6.7344C7.59985 5.87186 8.77028 5.38754 9.99053 5.38797C11.2108 5.3884 12.3809 5.87355 13.2434 6.7367L13.6528 7.1484C15.1347 6.27197 16.7328 5.60916 18.4 5.1796V4.6C18.4 3.38 18.8846 2.20998 19.7473 1.34731C20.61 0.484641 21.78 0 23 0C24.22 0 25.39 0.484641 26.2527 1.34731C27.1154 2.20998 27.6 3.38 27.6 4.6V5.1796C29.2882 5.6143 30.8821 6.2836 32.3472 7.1484L32.7589 6.7344C33.622 5.87186 34.7925 5.38754 36.0127 5.38797C36.6169 5.38818 37.2152 5.5074 37.7733 5.73882C38.3314 5.97023 38.8385 6.30931 39.2656 6.7367C39.6927 7.16409 40.0314 7.67141 40.2624 8.2297C40.4935 8.78799 40.6122 9.38632 40.612 9.99053C40.6118 10.5947 40.4926 11.193 40.2612 11.7511C40.0298 12.3092 39.6907 12.8163 39.2633 13.2434L38.8516 13.6528C39.7187 15.1179 40.3857 16.7118 40.8204 18.4H41.4C42.62 18.4 43.79 18.8846 44.6527 19.7473C45.5154 20.61 46 21.78 46 23C46 24.22 45.5154 25.39 44.6527 26.2527C43.79 27.1154 42.62 27.6 41.4 27.6H40.8204C40.3908 29.2672 39.728 30.8653 38.8516 32.3472L39.2656 32.7589C39.6927 33.1863 40.0314 33.6936 40.2624 34.2519C40.4935 34.8102 40.6122 35.4085 40.612 36.0127C40.6118 36.6169 40.4926 37.2152 40.2612 37.7733C40.0298 38.3314 39.6907 38.8385 39.2633 39.2656C38.8359 39.6927 38.3286 40.0314 37.7703 40.2624C37.212 40.4935 36.6137 40.6122 36.0095 40.612C35.4053 40.6118 34.807 40.4926 34.2489 40.2612C33.6908 40.0298 33.1837 39.6907 32.7566 39.2633L32.3472 38.8516C30.8653 39.728 29.2672 40.3908 27.6 40.8204V41.4C27.6 42.62 27.1154 43.79 26.2527 44.6527C25.39 45.5154 24.22 46 23 46C21.78 46 20.61 45.5154 19.7473 44.6527C18.8846 43.79 18.4 42.62 18.4 41.4V40.8204C16.7328 40.3908 15.1347 39.728 13.6528 38.8516L13.2411 39.2656C12.8137 39.6927 12.3064 40.0314 11.7481 40.2624C11.1898 40.4935 10.5915 40.6122 9.98727 40.612C9.38307 40.6118 8.78483 40.4926 8.2267 40.2612C7.66857 40.0298 7.16148 39.6907 6.7344 39.2633C6.30731 38.8359 5.96859 38.3286 5.73757 37.7703C5.50655 37.212 5.38775 36.6137 5.38797 36.0095C5.38818 35.4053 5.5074 34.807 5.73882 34.2489C5.97023 33.6908 6.30931 33.1837 6.7367 32.7566L7.1484 32.3472C6.27197 30.8653 5.60916 29.2672 5.1796 27.6ZM18.4 20.7C17.1297 19.4297 15.0703 19.4297 13.8 20.7C12.5297 21.9703 12.5297 24.0297 13.8 25.3L20.7 32.2L32.2 20.7C33.4703 19.4297 33.4703 17.3703 32.2 16.1C30.9297 14.8297 28.8703 14.8297 27.6 16.1L20.7 23L18.4 20.7Z" fill="url(#paint0_linear)"/>
<defs>
<linearGradient id="paint0_linear" x1="46" y1="10.0161" x2="7.41935" y2="37.8387" gradientUnits="userSpaceOnUse">
<stop stop-color="#05C200"/>
<stop offset="0.264986" stop-color="#24ACD3"/>
<stop offset="0.618666" stop-color="#7E3BD0"/>
<stop offset="1" stop-color="#F0553B"/>
</linearGradient>
</defs>
</svg>
