<svg width="330" height="21" viewBox="0 0 330 21" fill="none" xmlns="http://www.w3.org/2000/svg">
<g clip-path="url(#clip0)">
<path fill-rule="evenodd" clip-rule="evenodd" d="M53.8372 6.4474C53.8039 6.44778 53.7711 6.45517 53.7409 6.4691L45.0471 10.4816C45.0023 10.5023 44.965 10.5365 44.9406 10.5795C44.9162 10.6224 44.9059 10.6719 44.9111 10.721C44.9162 10.7701 44.9367 10.8164 44.9695 10.8533C45.0023 10.8902 45.0458 10.916 45.094 10.9269L48.7648 11.7588L49.5969 15.4298C49.6078 15.478 49.6336 15.5215 49.6705 15.5543C49.7074 15.587 49.7537 15.6074 49.8028 15.6126C49.8519 15.6178 49.9013 15.6074 49.9443 15.583C49.9872 15.5586 50.0214 15.5214 50.0421 15.4766L54.0546 6.78273C54.0713 6.74651 54.0785 6.70668 54.0756 6.66692C54.0727 6.62716 54.0599 6.58877 54.0382 6.55532C54.0165 6.52187 53.9867 6.49445 53.9516 6.47561C53.9165 6.45676 53.8771 6.44698 53.8372 6.4474ZM53.3562 7.16759L49.9042 14.6468L49.1931 11.5088C49.1832 11.4653 49.1613 11.4255 49.1297 11.394C49.0982 11.3624 49.0584 11.3404 49.0149 11.3306L45.877 10.6195L53.3562 7.16759Z" fill="white" stroke="white" stroke-width="0.8"/>
</g>
<g clip-path="url(#clip1)">
<path d="M295.921 6.00001H295.902C293.353 6.00001 291.035 7.00001 289.31 8.63293L289.315 8.62793L289 8.92501L290.59 10.5192L290.887 10.2442C292.205 9.01418 293.972 8.25959 295.914 8.25959C297.856 8.25959 299.624 9.01376 300.947 10.2488L300.942 10.2442L301.238 10.5192L302.829 8.92501L302.514 8.62793C300.732 6.93614 298.379 5.99622 295.936 6.00001H295.919H295.92H295.921Z" fill="white"/>
<path d="M300.284 11.0125C299.093 9.91599 297.54 9.30963 295.93 9.31251H295.652L295.65 9.31876C294.128 9.37904 292.676 9.98042 291.549 11.0171L291.555 11.0121L291.23 11.3092L292.833 12.9154L293.13 12.6529C293.867 11.9838 294.847 11.575 295.922 11.575C296.996 11.575 297.976 11.9842 298.718 12.6567L298.713 12.6533L299.01 12.9158L300.613 11.31L300.284 11.0125Z" fill="white"/>
<path d="M295.924 16L298.178 13.7437L297.82 13.4467C297.279 13.0155 296.604 12.7939 295.916 12.8217H295.921H295.894C295.216 12.8205 294.556 13.042 294.013 13.4529L294.021 13.4471L293.667 13.7442L293.994 14.0721L295.624 15.7033L295.924 16Z" fill="white"/>
</g>
<path d="M280.8 16C280.248 16 279.8 15.5523 279.8 15V7C279.8 6.44772 280.248 6 280.8 6H282C282.552 6 283 6.44772 283 7V15C283 15.5523 282.552 16 282 16H280.8ZM275.533 9.5C275.533 8.94772 275.981 8.5 276.533 8.5H277.733C278.286 8.5 278.733 8.94772 278.733 9.5V15C278.733 15.5523 278.286 16 277.733 16H276.533C275.981 16 275.533 15.5523 275.533 15V9.5ZM271.267 12C271.267 11.4477 271.714 11 272.267 11H273.467C274.019 11 274.467 11.4477 274.467 12V15C274.467 15.5523 274.019 16 273.467 16H272.267C271.714 16 271.267 15.5523 271.267 15V12ZM267 14.5C267 13.9477 267.448 13.5 268 13.5H269.2C269.752 13.5 270.2 13.9477 270.2 14.5V15C270.2 15.5523 269.752 16 269.2 16H268C267.448 16 267 15.5523 267 15V14.5Z" fill="white"/>
<path d="M308 9.125C308 8.49511 308.25 7.89102 308.696 7.44562C309.141 7.00022 309.745 6.75 310.375 6.75H325.25C325.88 6.75 326.484 7.00022 326.929 7.44562C327.375 7.89102 327.625 8.49511 327.625 9.125V13.875C327.625 14.5049 327.375 15.109 326.929 15.5544C326.484 15.9998 325.88 16.25 325.25 16.25H310.375C309.745 16.25 309.141 15.9998 308.696 15.5544C308.25 15.109 308 14.5049 308 13.875V9.125ZM310.375 7.9375C310.06 7.9375 309.758 8.06261 309.535 8.28531C309.313 8.50801 309.188 8.81006 309.188 9.125V13.875C309.188 14.1899 309.313 14.492 309.535 14.7147C309.758 14.9374 310.06 15.0625 310.375 15.0625H325.25C325.565 15.0625 325.867 14.9374 326.09 14.7147C326.312 14.492 326.438 14.1899 326.438 13.875V9.125C326.438 8.81006 326.312 8.50801 326.09 8.28531C325.867 8.06261 325.565 7.9375 325.25 7.9375H310.375ZM330 11.5C330 11.9724 329.812 12.4255 329.478 12.7595C329.144 13.0936 328.691 13.2812 328.219 13.2812V9.71875C328.691 9.71875 329.144 9.90642 329.478 10.2405C329.812 10.5745 330 11.0276 330 11.5Z" fill="white"/>
<rect x="310" y="9" width="10" height="5" rx="1" fill="white"/>
<path d="M7.91748 10.646C7.91748 12.5063 7.61719 13.8882 7.0166 14.7915C6.4209 15.6948 5.50781 16.1465 4.27734 16.1465C3.08594 16.1465 2.18262 15.6802 1.56738 14.7476C0.952148 13.8149 0.644531 12.4478 0.644531 10.646C0.644531 8.75635 0.942383 7.36475 1.53809 6.47119C2.13867 5.57275 3.05176 5.12354 4.27734 5.12354C5.47363 5.12354 6.37939 5.59229 6.99463 6.52979C7.60986 7.46729 7.91748 8.83936 7.91748 10.646ZM2.3877 10.646C2.3877 12.106 2.53662 13.1484 2.83447 13.7734C3.13721 14.3984 3.61816 14.7109 4.27734 14.7109C4.93652 14.7109 5.41748 14.3936 5.72021 13.7588C6.02783 13.124 6.18164 12.0864 6.18164 10.646C6.18164 9.21045 6.02783 8.17285 5.72021 7.5332C5.41748 6.88867 4.93652 6.56641 4.27734 6.56641C3.61816 6.56641 3.13721 6.88135 2.83447 7.51123C2.53662 8.14111 2.3877 9.18604 2.3877 10.646ZM16.4722 9.8623C16.4722 11.9717 16.0474 13.5464 15.1978 14.5864C14.3481 15.6265 13.0688 16.1465 11.3599 16.1465C10.7104 16.1465 10.2441 16.1074 9.96094 16.0293V14.5864C10.3955 14.7085 10.8325 14.7695 11.272 14.7695C12.4341 14.7695 13.3008 14.457 13.8721 13.832C14.4434 13.207 14.7559 12.2256 14.8096 10.8877H14.7217C14.4336 11.3271 14.0845 11.6445 13.6743 11.8398C13.269 12.0352 12.793 12.1328 12.2461 12.1328C11.2988 12.1328 10.5542 11.8374 10.0122 11.2466C9.47021 10.6558 9.19922 9.84521 9.19922 8.81494C9.19922 7.69678 9.51172 6.80811 10.1367 6.14893C10.7666 5.48486 11.6235 5.15283 12.7075 5.15283C13.4692 5.15283 14.1333 5.33838 14.6997 5.70947C15.2661 6.08057 15.7031 6.62012 16.0107 7.32812C16.3184 8.03125 16.4722 8.87598 16.4722 9.8623ZM12.7368 6.58105C12.1411 6.58105 11.6846 6.77637 11.3672 7.16699C11.0498 7.55273 10.8911 8.09717 10.8911 8.80029C10.8911 9.41064 11.0376 9.8916 11.3306 10.2432C11.6284 10.5898 12.0776 10.7632 12.6782 10.7632C13.2593 10.7632 13.7476 10.5898 14.1431 10.2432C14.5386 9.89648 14.7363 9.49121 14.7363 9.02734C14.7363 8.59277 14.6509 8.1875 14.48 7.81152C14.314 7.43066 14.0796 7.13037 13.7769 6.91064C13.4741 6.69092 13.1274 6.58105 12.7368 6.58105ZM18.1128 15.0845C18.1128 14.728 18.2056 14.4546 18.3911 14.2642C18.5767 14.0737 18.8452 13.9785 19.1968 13.9785C19.5532 13.9785 19.8242 14.0786 20.0098 14.2788C20.1953 14.4741 20.2881 14.7427 20.2881 15.0845C20.2881 15.4312 20.1929 15.707 20.0024 15.9121C19.8169 16.1123 19.5483 16.2124 19.1968 16.2124C18.8452 16.2124 18.5767 16.1123 18.3911 15.9121C18.2056 15.7119 18.1128 15.436 18.1128 15.0845ZM18.1128 8.82959C18.1128 8.09229 18.4741 7.72363 19.1968 7.72363C19.563 7.72363 19.8364 7.82129 20.0171 8.0166C20.1978 8.21191 20.2881 8.48291 20.2881 8.82959C20.2881 9.17627 20.1929 9.45215 20.0024 9.65723C19.8169 9.85742 19.5483 9.95752 19.1968 9.95752C18.8452 9.95752 18.5767 9.85742 18.3911 9.65723C18.2056 9.45703 18.1128 9.18115 18.1128 8.82959ZM25.5615 9.31299C26.6406 9.31299 27.4951 9.59863 28.125 10.1699C28.7549 10.7412 29.0698 11.52 29.0698 12.5063C29.0698 13.6489 28.7109 14.5425 27.9932 15.187C27.2803 15.8267 26.2646 16.1465 24.9463 16.1465C23.75 16.1465 22.8101 15.9536 22.1265 15.5679V14.0078C22.522 14.2324 22.9761 14.4058 23.4888 14.5278C24.0015 14.6499 24.4775 14.7109 24.917 14.7109C25.6934 14.7109 26.2842 14.5376 26.6895 14.1909C27.0947 13.8442 27.2974 13.3364 27.2974 12.6675C27.2974 11.3882 26.4819 10.7485 24.8511 10.7485C24.6216 10.7485 24.3384 10.7729 24.0015 10.8218C23.6646 10.8657 23.3691 10.917 23.1152 10.9756L22.3462 10.5215L22.7563 5.29199H28.3228V6.82275H24.2725L24.0308 9.47412C24.2017 9.44482 24.4092 9.41064 24.6533 9.37158C24.9023 9.33252 25.2051 9.31299 25.5615 9.31299ZM38.1372 13.6636H36.6943V16H35.0171V13.6636H30.1245V12.3379L35.0171 5.2627H36.6943V12.2354H38.1372V13.6636ZM35.0171 12.2354V9.54736C35.0171 8.59033 35.0415 7.80664 35.0903 7.19629H35.0317C34.895 7.51855 34.6802 7.90918 34.3872 8.36816L31.7285 12.2354H35.0171Z" fill="white"/>
<defs>
<clipPath id="clip0">
<rect width="12" height="12" fill="white" transform="translate(43 5)"/>
</clipPath>
<clipPath id="clip1">
<rect width="14" height="10" fill="white" transform="translate(289 6)"/>
</clipPath>
</defs>
</svg>
