<svg width="362" height="192" viewBox="0 0 362 192" fill="none" xmlns="http://www.w3.org/2000/svg">
<path d="M44.0693 59.6956C40.5613 59.6956 37.2452 58.9829 34.1208 57.5577C31.0513 56.1325 28.5574 54.022 26.6389 51.2264C24.7205 48.4307 23.7613 45.0046 23.7613 40.9482V18.6651C23.7613 17.5688 23.4324 16.7191 22.7746 16.1162C22.1169 15.5132 21.3221 15.2117 20.3903 15.2117C19.4037 15.2117 18.5815 15.5132 17.9237 16.1162C17.266 16.7191 16.9371 17.5688 16.9371 18.6651V58.6266H0V18.8296C0 14.828 0.931814 11.4293 2.79544 8.63365C4.71388 5.838 7.23526 3.70014 10.3596 2.22009C13.4839 0.74003 16.8275 0 20.3903 0C23.9531 0 27.2693 0.74003 30.3388 2.22009C33.4083 3.70014 35.9023 5.838 37.8207 8.63365C39.7391 11.4293 40.6984 14.828 40.6984 18.8296V41.1126C40.6984 42.209 41.0272 43.0586 41.685 43.6616C42.3976 44.2646 43.1649 44.5661 43.9871 44.5661C44.9189 44.5661 45.7411 44.2646 46.4537 43.6616C47.1662 43.0586 47.5225 42.209 47.5225 41.1126V18.8296C47.5225 14.828 48.4818 11.4293 50.4002 8.63365C52.3186 5.838 54.8126 3.70014 57.8821 2.22009C61.0064 0.74003 64.3226 0 67.8306 0C71.3386 0 74.6274 0.74003 77.6969 2.22009C80.7664 3.70014 83.2604 5.838 85.1788 8.63365C87.0972 11.4293 88.0565 14.828 88.0565 18.8296V58.6266H71.2016V18.4185C71.2016 17.4866 70.8453 16.7191 70.1327 16.1162C69.475 15.5132 68.7076 15.2117 67.8306 15.2117C66.8988 15.2117 66.0766 15.5132 65.364 16.1162C64.7063 16.7191 64.3774 17.4866 64.3774 18.4185V40.9482C64.3774 45.0046 63.3908 48.4307 61.4175 51.2264C59.4991 54.022 57.0051 56.1325 53.9356 57.5577C50.8661 58.9829 47.5773 59.6956 44.0693 59.6956Z" fill="white"/>
<path d="M108.966 75.3184V58.4622C104.636 57.2014 101.21 54.9813 98.689 51.8019C96.2225 48.5677 94.9892 44.8128 94.9892 40.5371V16.0339H110.693V39.3859C110.693 40.9208 111.241 42.346 112.337 43.6616C113.434 44.9224 114.941 45.5528 116.859 45.5528C118.778 45.5528 120.258 44.9224 121.299 43.6616C122.395 42.346 122.944 40.9208 122.944 39.3859V16.0339H138.73V40.5371C138.73 44.8676 137.496 48.65 135.03 51.8842C132.563 55.0635 129.137 57.2836 124.752 58.5444V75.3184H108.966Z" fill="white"/>
<path d="M86.139 177C79.5202 177 73.2633 175.655 67.3683 172.966C61.5768 170.174 56.8712 166.14 53.2515 160.865C49.6318 155.59 47.8219 149.178 47.8219 141.628V99.5841C47.8219 97.5155 47.2014 95.9124 45.9604 94.7747C44.7193 93.637 43.2197 93.0682 41.4616 93.0682C39.6 93.0682 38.0487 93.637 36.8077 94.7747C35.5667 95.9124 34.9461 97.5155 34.9461 99.5841V174.983H2.98936V99.8944C2.98936 92.3442 4.7475 85.9316 8.26378 80.6568C11.8835 75.382 16.6408 71.3483 22.5357 68.5557C28.4307 65.7631 34.7393 64.3669 41.4616 64.3669C48.1839 64.3669 54.4408 65.7631 60.2323 68.5557C66.0239 71.3483 70.7295 75.382 74.3492 80.6568C77.9689 85.9316 79.7787 92.3442 79.7787 99.8944V141.938C79.7787 144.006 80.3992 145.661 81.6403 146.902C82.9847 148.04 84.4326 148.609 85.9839 148.609C87.7421 148.609 89.2934 148.04 90.6378 146.902C91.9823 145.661 92.6545 144.006 92.6545 141.938V66.3837H124.456V141.628C124.456 149.178 122.646 155.59 119.027 160.865C115.407 166.14 110.65 170.174 104.755 172.966C98.9631 175.655 92.7579 177 86.139 177Z" fill="white"/>
<path d="M137.516 174.983V99.5841C137.516 93.275 139.067 87.6382 142.17 82.6736C145.273 77.6057 149.513 73.6237 154.891 70.7277C160.372 67.8317 166.577 66.3837 173.506 66.3837H216.477V92.6027H178.626C176.454 92.6027 174.644 93.3267 173.196 94.7747C171.748 96.2227 171.024 98.0327 171.024 100.205V112.151H211.513V137.749H171.024V174.983H137.516Z" fill="white"/>
<path d="M285.869 174.983C278.94 174.983 272.786 173.535 267.408 170.639C262.031 167.64 257.79 163.606 254.688 158.538C251.585 153.367 250.034 147.523 250.034 141.007V92.6027H221.955V66.3837H311V92.6027H283.542V142.714C283.542 144.368 284.111 145.816 285.248 147.058C286.386 148.195 287.782 148.764 289.437 148.764H299.831V174.983H285.869Z" fill="white"/>
<path d="M310.824 176.432C309.864 176.432 309.036 176.096 308.34 175.424C307.668 174.728 307.332 173.912 307.332 172.976C307.332 172.016 307.668 171.2 308.34 170.528C309.036 169.832 309.864 169.484 310.824 169.484C311.76 169.484 312.564 169.832 313.236 170.528C313.932 171.2 314.28 172.016 314.28 172.976C314.28 173.912 313.932 174.728 313.236 175.424C312.564 176.096 311.76 176.432 310.824 176.432ZM319.09 176V162.104H315.994V157.532H319.09V155.12C319.09 153.44 319.558 152.12 320.494 151.16C321.454 150.2 322.786 149.72 324.49 149.72H330.106V154.292H325.714C325.402 154.292 325.15 154.4 324.958 154.616C324.766 154.808 324.67 155.048 324.67 155.336V157.532H329.314V162.104H324.67V176H319.09ZM338.156 183.308V176.108C336.116 175.628 334.532 174.656 333.404 173.192C332.3 171.728 331.748 170.048 331.748 168.152V157.532H337.328V167.972C337.328 168.956 337.664 169.808 338.336 170.528C339.032 171.224 339.884 171.572 340.892 171.572C341.924 171.572 342.776 171.224 343.448 170.528C344.144 169.808 344.492 168.956 344.492 167.972V157.532H350.072V168.152C350.072 170.048 349.52 171.728 348.416 173.192C347.312 174.632 345.752 175.592 343.736 176.072V183.308H338.156ZM354.248 176V157.532H359.864V176H354.248ZM357.056 155.444C356.168 155.444 355.4 155.12 354.752 154.472C354.104 153.824 353.78 153.056 353.78 152.168C353.78 151.256 354.104 150.476 354.752 149.828C355.4 149.18 356.168 148.856 357.056 148.856C357.968 148.856 358.736 149.18 359.36 149.828C360.008 150.476 360.332 151.256 360.332 152.168C360.332 153.056 360.008 153.824 359.36 154.472C358.736 155.12 357.968 155.444 357.056 155.444Z" fill="white"/>
</svg>
