<svg width="207" height="50" viewBox="0 0 207 50" fill="none" xmlns="http://www.w3.org/2000/svg">
<g clip-path="url(#clip0_796:1564)">
<path d="M14.6489 31.976C14.4947 32.5464 14.0321 32.6604 13.608 32.2802L5.35805 24.6756C4.93398 24.2954 5.01109 23.8011 5.55081 23.573L17.1162 19.0102C17.6559 18.7821 17.9644 19.0863 17.8487 19.6186L14.6489 31.976Z" fill="white"/>
<path d="M7.82619 39.2C7.40213 39.5802 6.93951 39.4281 6.82386 38.8578L4.54932 26.5003C4.43367 25.93 4.70353 25.7779 5.12759 26.1962L12.9921 33.4205C13.4161 33.8007 13.4161 34.4471 12.9535 34.8273L7.82619 39.2Z" fill="white"/>
<path d="M17.3091 16.578C17.6946 16.9962 17.5404 17.5285 17.0007 17.7567L5.47385 22.2814C4.93413 22.5095 4.66427 22.2434 4.85703 21.673L9.59885 9.12549C9.7916 8.59317 10.2928 8.51712 10.6397 8.93537L17.3091 16.578Z" fill="white"/>
<path d="M5.24141 37.1092C5.35706 37.6795 5.1643 37.7556 4.85589 37.2613L0.383929 30.4552C0.0755176 29.9609 0.0755176 29.2004 0.42248 28.7442L2.42715 26.1206C2.77412 25.6643 3.15963 25.7404 3.23673 26.3107L5.24141 37.1092Z" fill="white"/>
<path d="M3.81653 20.9116C3.62377 21.4439 3.31536 21.4439 3.1226 20.9116L1.58055 16.3869C1.38779 15.8545 1.58055 15.0941 2.04317 14.7139L7.47891 9.84694C7.90298 9.46671 8.09573 9.58078 7.90298 10.1131L3.81653 20.9116Z" fill="white"/>
<path d="M2.39191 22.6612C2.58467 23.1935 2.43046 24.03 2.0835 24.4863L0.502892 26.5395C0.15593 26.9958 -0.0753785 26.9197 -0.0368271 26.3494L0.772752 19.1631C0.849855 18.5927 1.04261 18.5547 1.19682 19.125L2.39191 22.6612Z" fill="white"/>
<path d="M8.51897 6.5016C8.71173 6.72974 8.51897 7.22404 8.09491 7.60426L5.66617 9.80959C5.2421 10.1898 5.165 10.1138 5.51196 9.65749L7.55519 6.91985C7.90215 6.5016 8.32621 6.31149 8.51897 6.5016Z" fill="white"/>
<path d="M23.9789 44.6753C23.6704 45.1696 23.1693 45.1696 22.8609 44.7134L16.4228 35.5118C16.0758 35.0556 16.3071 34.5993 16.8854 34.5613L29.723 33.2685C30.3013 33.1925 30.5326 33.5727 30.2242 34.067L23.9789 44.6753Z" fill="white"/>
<path d="M21.2799 44.6768C21.6268 45.1331 21.4341 45.3992 20.8944 45.2091L8.82776 41.1787C8.28804 40.9886 8.17239 40.5323 8.635 40.1521L13.8009 35.7414C14.225 35.3612 14.8803 35.4373 15.1887 35.9316L21.2799 44.6768Z" fill="white"/>
<path d="M30.0317 31.1029C30.4172 31.5212 30.263 31.9394 29.6847 32.0155L16.6543 33.3463C16.0761 33.4223 15.7291 33.0041 15.8833 32.4337L19.1602 19.9242C19.3144 19.3539 19.7385 19.2778 20.124 19.6961L30.0317 31.1029Z" fill="white"/>
<path d="M39.4002 41.8618C39.7857 42.2801 39.6315 42.7364 39.0532 42.8504L25.753 45.6261C25.1747 45.7402 24.9434 45.436 25.2518 44.9417L31.4971 34.3713C31.8055 33.877 32.3453 33.839 32.7308 34.2573L39.4002 41.8618Z" fill="white"/>
<path d="M18.0418 48.8963C17.5407 49.1625 16.7697 49.0864 16.307 48.7062L10.1388 43.345C9.71475 42.9647 9.79185 42.8126 10.3316 43.0027L20.8561 46.5389C21.3958 46.729 21.4344 47.1092 20.9332 47.3754L18.0418 48.8963Z" fill="white"/>
<path d="M32.3445 49.3908C31.8819 49.771 31.1109 49.847 30.5711 49.5809L26.2534 47.4136C25.7522 47.1474 25.7908 46.8432 26.3305 46.7292L37.7802 44.3717C38.3585 44.2577 38.4356 44.4478 38.0116 44.828L32.3445 49.3908Z" fill="white"/>
<path d="M20.3929 49.6558C19.8146 49.6178 19.7761 49.3897 20.2773 49.1235L22.5903 47.9068C23.0915 47.6406 23.9396 47.6406 24.4794 47.8688L27.8333 49.5418C28.3345 49.8079 28.2959 49.998 27.7177 49.96L20.3929 49.6558Z" fill="white"/>
<path d="M41.5193 44.2948C41.7121 44.5229 41.4422 44.9032 40.9411 45.1693L37.8955 46.7663C37.3943 47.0324 37.3172 46.9564 37.7798 46.6142L40.3242 44.5609C40.7869 44.1807 41.3266 44.0667 41.5193 44.2948Z" fill="white"/>
<path d="M33.8484 30.9876C33.3087 31.2158 33.0003 30.9116 33.116 30.3793L36.3157 18.0219C36.4699 17.4515 36.9326 17.3374 37.3566 17.7177L45.6066 25.3222C46.0307 25.7025 45.9536 26.1968 45.4139 26.4249L33.8484 30.9876Z" fill="white"/>
<path d="M46.4544 23.4957C46.57 24.0661 46.3002 24.2182 45.8761 23.7999L38.0116 16.5756C37.5876 16.1954 37.5876 15.549 38.0502 15.1688L43.1775 10.7961C43.6016 10.4159 44.0642 10.568 44.1799 11.1383L46.4544 23.4957Z" fill="white"/>
<path d="M41.4039 40.8352C41.2112 41.3675 40.71 41.4435 40.363 41.0253L33.6936 33.4587C33.3081 33.0405 33.4623 32.5082 34.0021 32.28L45.5289 27.7553C46.0686 27.5272 46.3385 27.7933 46.1457 28.3637L41.4039 40.8352Z" fill="white"/>
<path d="M50.6175 19.543C50.9259 20.0373 50.9259 20.7978 50.5404 21.2541L48.5357 23.8776C48.1887 24.3339 47.8032 24.2579 47.7261 23.6875L45.76 12.889C45.6443 12.3187 45.8371 12.2426 46.1455 12.7369L50.6175 19.543Z" fill="white"/>
<path d="M49.4227 33.6105C49.6155 34.1428 49.4227 34.9033 48.9601 35.2835L43.5244 40.1504C43.1003 40.5306 42.9075 40.4166 43.1003 39.8842L47.1867 29.0858C47.3795 28.5534 47.6879 28.5534 47.8807 29.0858L49.4227 33.6105Z" fill="white"/>
<path d="M50.2324 30.8359C50.1553 31.4062 49.9626 31.4443 49.8084 30.8739L48.6133 27.3378C48.4205 26.8055 48.5747 25.969 48.9217 25.5127L50.5023 23.4595C50.8492 23.0032 51.0806 23.0792 51.042 23.6496L50.2324 30.8359Z" fill="white"/>
<path d="M43.4474 43.041C43.1004 43.4973 42.6763 43.6874 42.4836 43.4593C42.2908 43.2311 42.4836 42.7368 42.9077 42.3566L45.3364 40.1513C45.7604 39.7711 45.8376 39.8091 45.4906 40.3034L43.4474 43.041Z" fill="white"/>
<path d="M34.5805 14.4864C34.9275 14.9427 34.6962 15.3989 34.1179 15.437L21.2803 16.7297C20.702 16.8058 20.4707 16.4255 20.7791 15.9313L27.0245 5.32288C27.3329 4.82859 27.834 4.82859 28.1425 5.28486L34.5805 14.4864Z" fill="white"/>
<path d="M37.2021 14.2573C36.778 14.6375 36.1227 14.5615 35.8143 14.0672L29.7231 5.32193C29.3762 4.86565 29.5689 4.59949 30.1087 4.78961L42.1367 8.82002C42.6764 9.01014 42.7921 9.46641 42.3295 9.84664L37.2021 14.2573Z" fill="white"/>
<path d="M31.9205 30.0755C31.7663 30.6459 31.3422 30.7219 30.9567 30.3037L20.9719 18.8968C20.5864 18.4786 20.7406 18.0603 21.3188 17.9843L34.3492 16.6535C34.9275 16.5774 35.2745 16.9957 35.1202 17.566L31.9205 30.0755Z" fill="white"/>
<path d="M19.4677 15.6264C19.1593 16.1207 18.6196 16.1587 18.2341 15.7405L11.6032 8.13592C11.2177 7.71767 11.3719 7.2614 11.9502 7.14733L25.2119 4.40969C25.7902 4.29562 26.0215 4.5998 25.713 5.0941L19.4677 15.6264Z" fill="white"/>
<path d="M30.1083 3.49637C29.5686 3.30625 29.53 2.92603 30.0312 2.65987L32.9611 1.10093C33.4623 0.834772 34.2333 0.910817 34.6959 1.29105L40.8642 6.65226C41.2882 7.03249 41.2111 7.18458 40.6714 6.99447L30.1083 3.49637Z" fill="white"/>
<path d="M13.184 5.62646C12.6058 5.74053 12.5286 5.55042 12.9527 5.17019L18.6583 0.607451C19.1209 0.227223 19.892 0.151178 20.4317 0.417337L24.7494 2.58464C25.2506 2.8508 25.2121 3.15498 24.6723 3.26905L13.184 5.62646Z" fill="white"/>
<path d="M28.4499 2.09022C27.9488 2.35638 27.1006 2.35638 26.5609 2.12824L23.2069 0.455235C22.7058 0.151053 22.7443 -0.0390612 23.3226 -0.00103836L30.6088 0.341167C31.1871 0.37919 31.2642 0.607327 30.7245 0.873486L28.4499 2.09022Z" fill="white"/>
<path d="M10.64 5.43569C10.1773 5.81591 9.67617 5.92998 9.48341 5.70185C9.29065 5.47371 9.56051 5.09348 10.0617 4.82732L13.1072 3.23036C13.6084 2.9642 13.6855 3.04025 13.2229 3.38245L10.64 5.43569Z" fill="white"/>
<path d="M6.74628 41.7487C6.97759 41.5586 7.47876 41.7487 7.86427 42.1669L10.1003 44.5624C10.4858 44.9806 10.4087 45.0566 9.94605 44.7144L7.17035 42.6992C6.74628 42.357 6.55352 41.9388 6.74628 41.7487Z" fill="white"/>
<path d="M45.0664 9.2013C45.2977 9.01119 45.6833 9.27735 45.9531 9.77164L47.5723 12.7754C47.8421 13.2697 47.765 13.3458 47.4181 12.8895L45.3363 10.38C44.9508 9.92374 44.8351 9.39142 45.0664 9.2013Z" fill="white"/>
<path d="M43.7942 7.30006C44.2569 7.64226 44.4496 8.06051 44.2183 8.25063C43.987 8.44074 43.4858 8.25063 43.1003 7.83238L40.8643 5.43694C40.4788 5.01869 40.5174 4.94264 41.0185 5.28485L43.7942 7.30006Z" fill="white"/>
<path d="M5.66681 39.6581C6.05233 40.1144 6.16798 40.6087 5.93667 40.7988C5.70536 40.9889 5.31985 40.7228 5.04999 40.2285L3.43083 37.2247C3.16097 36.7304 3.23807 36.6543 3.58504 37.1106L5.66681 39.6581Z" fill="white"/>
<path d="M89.6701 11.519C92.1374 12.9258 94.1035 14.789 95.5685 17.1464C97.0334 19.5038 97.7659 22.1274 97.7659 24.941C97.7659 27.7928 97.0334 30.3783 95.5685 32.8118C94.1035 35.2072 92.1374 37.1083 89.6701 38.5152C87.2028 39.922 84.4657 40.6064 81.4972 40.6064C78.5287 40.6064 75.7916 39.922 73.3243 38.5152C70.857 37.1083 68.8909 35.2072 67.4259 32.8118C65.961 30.4163 65.2285 27.7928 65.2285 24.941C65.2285 22.0893 65.961 19.5038 67.4259 17.1464C68.8909 14.789 70.857 12.8878 73.3243 11.519C75.7916 10.1121 78.5287 9.42773 81.4972 9.42773C84.5042 9.42773 87.2028 10.1121 89.6701 11.519ZM74.982 13.8384C72.9773 14.9791 71.3582 16.538 70.1631 18.4772C68.968 20.4544 68.3897 22.5836 68.3897 24.941C68.3897 27.2985 68.968 29.4277 70.1631 31.4429C71.3582 33.4201 72.9388 35.0171 74.982 36.1578C76.9867 37.2985 79.1841 37.9068 81.5743 37.9068C83.9259 37.9068 86.0848 37.3365 88.0895 36.1578C90.0942 35.0171 91.6748 33.4201 92.8699 31.4429C94.065 29.4658 94.6432 27.2985 94.6432 24.941C94.6432 22.0893 93.7566 19.5038 91.9832 17.2224C91.1351 16.1198 90.0556 15.1312 88.8991 14.3327C86.6631 12.8498 84.2344 12.1274 81.5743 12.1274C79.1841 12.1274 76.9867 12.6977 74.982 13.8384Z" fill="white"/>
<path d="M130.65 39.7333L124.366 30.3797C123.402 30.4558 122.708 30.4558 122.168 30.4558H113.61V38.9349C113.61 39.7333 112.955 40.3797 112.145 40.3797H111.991C111.181 40.3797 110.526 39.7333 110.526 38.9349V9.69531H122.13C126.024 9.69531 129.031 10.5698 131.151 12.3569C133.271 14.144 134.351 16.6535 134.351 19.8854C134.351 22.433 133.734 24.5622 132.5 26.2352C131.267 27.9463 129.493 29.125 127.18 29.7714L133.078 38.0984C133.734 39.0489 133.078 40.3417 131.883 40.3417C131.382 40.3417 130.92 40.1136 130.65 39.7333ZM122.168 27.7181C125.137 27.7181 127.411 27.0717 129.031 25.7029C130.65 24.3721 131.421 22.433 131.421 19.9234C131.421 17.452 130.611 15.5888 129.031 14.2961C127.411 13.0033 125.137 12.3569 122.168 12.3569H113.61V27.6801H122.168V27.7181Z" fill="white"/>
<path d="M169.124 11.6715C170.898 13.0403 171.784 14.9034 171.784 17.2988C171.784 19.1239 171.283 20.6448 170.242 21.8616C169.201 23.0783 167.775 23.8768 165.963 24.257C168.238 24.5612 170.011 25.3977 171.283 26.7665C172.555 28.1353 173.211 29.8844 173.211 31.9756C173.211 34.5992 172.208 36.6524 170.242 38.1353C168.238 39.5802 165.5 40.3407 161.954 40.3407H148.769V9.65625H161.799C164.922 9.65625 167.351 10.3407 169.124 11.6715ZM166.811 21.7855C168.045 20.835 168.623 19.4661 168.623 17.7171C168.623 16.0061 168.006 14.7133 166.811 13.7627C165.577 12.8121 163.881 12.3559 161.684 12.3939H151.853V23.1924H161.684C163.881 23.1924 165.577 22.7361 166.811 21.7855ZM167.891 36.0821C169.355 35.0555 170.088 33.5726 170.088 31.7095C170.088 29.8844 169.355 28.4395 167.852 27.4129C166.387 26.3863 164.305 25.892 161.684 25.892H151.853V37.641H161.684C164.344 37.641 166.426 37.1087 167.891 36.0821Z" fill="white"/>
<path d="M199.888 12.8507C198.385 12.4324 196.958 12.2043 195.609 12.2043C193.489 12.2043 191.754 12.6226 190.482 13.4591C189.21 14.2956 188.554 15.4363 188.554 16.8431C188.554 18.0978 188.901 19.1245 189.634 19.9229C190.328 20.7214 191.214 21.3298 192.255 21.7861C193.296 22.2423 194.722 22.7366 196.534 23.307C198.655 23.9153 200.351 24.5237 201.623 25.1321C202.895 25.7404 204.013 26.615 204.9 27.7556C205.787 28.8963 206.249 30.4172 206.249 32.2804C206.249 33.9153 205.787 35.3602 204.861 36.615C203.936 37.8697 202.626 38.8583 200.929 39.5427C199.233 40.2271 197.305 40.5693 195.108 40.5693C192.949 40.5693 190.829 40.1511 188.786 39.3146C187.128 38.6302 185.663 37.7556 184.352 36.729C183.812 36.3108 183.697 35.5503 184.005 34.942C184.429 34.1815 185.432 33.9914 186.125 34.5237C187.205 35.3602 188.4 36.0446 189.711 36.615C191.561 37.3754 193.373 37.7556 195.147 37.7556C197.537 37.7556 199.387 37.2994 200.814 36.3108C202.201 35.3602 202.895 34.0674 202.895 32.4705C202.895 31.1777 202.548 30.1131 201.816 29.3146C201.122 28.4781 200.235 27.8697 199.194 27.4134C198.154 26.9572 196.689 26.4629 194.838 25.8925C192.718 25.2461 191.06 24.6378 189.749 24.0674C188.477 23.4971 187.398 22.6606 186.511 21.5199C185.624 20.3792 185.162 18.9344 185.162 17.1093C185.162 15.5503 185.624 14.1815 186.511 13.0408C187.398 11.8621 188.631 10.9876 190.25 10.3412C191.87 9.69481 193.72 9.39062 195.802 9.39062C197.498 9.39062 199.194 9.65678 200.891 10.1511C202.086 10.4933 203.165 10.9115 204.168 11.4058C204.861 11.748 205.17 12.6226 204.823 13.307L204.784 13.383C204.437 14.0674 203.551 14.3336 202.857 13.9914C201.893 13.5351 200.929 13.1549 199.888 12.8507Z" fill="white"/>
</g>
<defs>
<clipPath id="clip0_796:1564">
<rect width="206.25" height="50" fill="white"/>
</clipPath>
</defs>
</svg>
